<svg width="26" height="26" viewBox="0 0 26 26" fill="none" xmlns="http://www.w3.org/2000/svg">
<path d="M26 26H25.1333C21.5711 25.9998 18.1282 24.7155 15.4361 22.3826L14.5247 21.5927C14.0191 21.6419 13.5079 21.6667 13 21.6667C9.55895 21.6667 6.31665 20.56 3.87032 18.5505C1.37448 16.5004 0 13.7597 0 10.8333C0 7.90698 1.37448 5.16625 3.87032 3.11615C6.31665 1.10668 9.55895 0 13 0C16.441 0 19.6834 1.10668 22.1297 3.11615C24.6255 5.16625 26 7.90698 26 10.8333C25.9988 12.3889 25.6062 13.9192 24.8583 15.2832C24.2092 16.4711 23.3447 17.528 22.309 18.3998C23.083 20.368 24.2529 22.1563 25.7461 23.6539L26 23.9077V26ZM15.083 19.7829L16.5714 21.0728C18.6241 22.8517 21.18 23.9471 23.8839 24.2069C22.392 22.5393 21.2399 20.5966 20.4921 18.4878L20.2541 17.8127L20.7529 17.4299C23.0188 15.6909 24.2667 13.3482 24.2667 10.8333C24.2667 5.81555 19.2124 1.73333 13 1.73333C6.78757 1.73333 1.73333 5.81555 1.73333 10.8333C1.73333 15.8511 6.78757 19.9333 13 19.9333C13.5685 19.9333 14.1365 19.8987 14.7008 19.8297L15.083 19.7829Z" fill="black"/>
</svg>
