<svg width="27" height="26" viewBox="0 0 27 26" fill="none" xmlns="http://www.w3.org/2000/svg">
<path d="M10.704 15.9116L17.2833 19.0472C17.5323 19.1659 17.8141 19.2067 18.0888 19.164C18.3635 19.1213 18.6172 18.9971 18.8139 18.8092C19.0106 18.6212 19.1404 18.3789 19.1849 18.1166C19.2294 17.8543 19.1863 17.5853 19.0619 17.3476L15.7736 11.0711L9.19233 7.92384C8.94337 7.80477 8.66148 7.76354 8.38661 7.80597C8.11174 7.84841 7.85782 7.97237 7.66085 8.16028C7.46388 8.34819 7.33384 8.59053 7.28916 8.85294C7.24448 9.11535 7.28743 9.38454 7.41193 9.62234L10.704 15.9116ZM14.4554 12.3292L16.8873 16.9713L12.022 14.6524L9.58726 10.0011L14.4554 12.3292Z" fill="black"/>
<path d="M13.2635 25.992C20.5888 25.992 26.5271 20.3221 26.5271 13.328C26.5271 6.33389 20.5888 0.664001 13.2635 0.664001C5.93831 0.664001 0 6.33389 0 13.328C0 20.3221 5.93831 25.992 13.2635 25.992ZM1.78798 12.6948C2.11493 7.20802 6.66234 2.79979 12.3793 2.38451V5.8879H14.1478V2.38451C19.8648 2.79979 24.4122 7.20802 24.7391 12.6948H21.2201V14.3833H24.7055C24.1769 19.6726 19.7174 23.8669 14.1478 24.2715V21.0847H12.3793V24.2715C6.80973 23.8669 2.35019 19.6726 1.82158 14.3833H5.30382V12.6948H1.78798Z" fill="black"/>
</svg>
