<svg width="26" height="25" viewBox="0 0 26 25" fill="none" xmlns="http://www.w3.org/2000/svg">
<path d="M23.6075 2.92116C22.9658 2.27949 22.204 1.77056 21.3655 1.42345C20.5271 1.07634 19.6284 0.897853 18.721 0.898194C17.8135 0.898535 16.915 1.07769 16.0768 1.42543C15.2387 1.77317 14.4772 2.28268 13.836 2.92483L12.999 3.772L12.169 2.92666L12.1636 2.92127C11.5223 2.2799 10.7609 1.77114 9.92289 1.42403C9.08491 1.07693 8.18676 0.898276 7.27973 0.898276C6.37271 0.898276 5.47456 1.07693 4.63658 1.42403C3.7986 1.77114 3.03719 2.2799 2.39583 2.92127L2.02296 3.29413C0.727682 4.58942 0 6.3462 0 8.17801C0 10.0098 0.727682 11.7666 2.02296 13.0619L11.8638 22.9026L12.9751 24.067L13.0016 24.0404L13.0303 24.0692L14.0716 22.9706L23.9803 13.0617C25.2737 11.7654 26 10.009 26 8.17785C26 6.34668 25.2737 4.59028 23.9803 3.29397L23.6075 2.92116ZM22.7591 11.8408L13.0016 21.5985L3.24386 11.8408C2.2724 10.8693 1.72664 9.55173 1.72664 8.17788C1.72664 6.80402 2.2724 5.48644 3.24386 4.51497L3.61678 4.14211C4.58777 3.17113 5.90456 2.62541 7.27774 2.62489C8.65092 2.62438 9.96811 3.16911 10.9398 4.13936L12.9953 6.2323L15.0606 4.14211C15.5416 3.66108 16.1127 3.27951 16.7412 3.01918C17.3696 2.75886 18.0432 2.62487 18.7235 2.62487C19.4038 2.62487 20.0774 2.75886 20.7059 3.01918C21.3344 3.27951 21.9054 3.66108 22.3864 4.14211L22.7593 4.51492C23.7293 5.48718 24.274 6.80451 24.274 8.17789C24.274 9.55128 23.7291 10.8686 22.7591 11.8408Z" fill="black"/>
</svg>
