<svg width="26" height="28" viewBox="0 0 26 28" fill="none" xmlns="http://www.w3.org/2000/svg">
<path d="M25.4003 11.6466L13.8751 1.17845C13.5004 0.838133 13.007 0.65396 12.498 0.664424C11.989 0.674888 11.5038 0.87918 11.1438 1.2346L0.543969 11.6995L0 12.2365V27.664H10.2143V18.0381H15.7857V27.664H26V12.1914L25.4003 11.6466ZM12.5379 2.49754C12.5543 2.49754 12.5442 2.50103 12.5372 2.50785C12.5299 2.50103 12.5216 2.49754 12.5379 2.49754ZM24.1429 25.8305H17.6429V18.0381C17.6429 17.5518 17.4472 17.0855 17.0989 16.7416C16.7506 16.3978 16.2783 16.2046 15.7857 16.2046H10.2143C9.72174 16.2046 9.24937 16.3978 8.90109 16.7416C8.55281 17.0855 8.35714 17.5518 8.35714 18.0381V25.8305H1.85714V12.996L12.5379 2.53105C12.5387 2.53037 12.5387 2.52974 12.5393 2.52905L24.1429 12.996V25.8305Z" fill="black"/>
</svg>
