<svg width="171" height="49" viewBox="0 0 171 49" fill="none" xmlns="http://www.w3.org/2000/svg">
<path d="M15.256 48.536C12.344 48.536 9.736 48.104 7.432 47.24C5.16 46.408 3.368 45.176 2.056 43.544C0.744 41.912 0.0879999 39.928 0.0879999 37.592C0.0879999 35.992 0.456 34.216 1.192 32.264C1.608 31.176 2.232 30.168 3.064 29.24C3.928 28.28 4.808 27.496 5.704 26.888C6.6 26.28 7.304 25.96 7.816 25.928H7.96C8.248 25.928 8.392 25.976 8.392 26.072C8.392 26.232 8.184 26.408 7.768 26.6C7.256 26.824 6.6 27.304 5.8 28.04C5.032 28.776 4.296 29.688 3.592 30.776C2.888 31.832 2.36 33.032 2.008 34.376C1.88 34.824 1.784 35.272 1.72 35.72C1.688 36.168 1.672 36.6 1.672 37.016C1.672 38.744 2.072 40.232 2.872 41.48C3.704 42.728 4.792 43.752 6.136 44.552C7.512 45.384 9.016 45.992 10.648 46.376C12.28 46.792 13.912 47 15.544 47C16.28 47 17 46.952 17.704 46.856C18.44 46.792 19.128 46.68 19.768 46.52C22.584 45.816 25.144 44.744 27.448 43.304C29.752 41.864 31.816 40.216 33.64 38.36C35.496 36.504 37.112 34.584 38.488 32.6C39.864 30.584 41.032 28.648 41.992 26.792C42.952 24.936 43.688 23.288 44.2 21.848C45.16 19.288 46.12 16.936 47.08 14.792C48.072 12.648 48.968 10.84 49.768 9.368C50.568 7.864 51.144 6.824 51.496 6.248C49.768 6.632 47.912 7.08 45.928 7.592C43.976 8.072 42.04 8.696 40.12 9.464C38.2 10.2 36.392 11.112 34.696 12.2C33.032 13.288 31.608 14.6 30.424 16.136C29.24 17.672 28.408 19.48 27.928 21.56C27.768 22.296 27.688 22.936 27.688 23.48C27.688 24.888 28.024 26.04 28.696 26.936C29.4 27.8 30.344 28.232 31.528 28.232C32.2 28.232 32.888 28.088 33.592 27.8C34.776 27.32 35.688 26.696 36.328 25.928C37 25.128 37.464 24.312 37.72 23.48C37.976 22.616 38.104 21.848 38.104 21.176C38.104 20.216 37.96 19.624 37.672 19.4C37.672 19.368 37.656 19.352 37.624 19.352C37.624 19.352 37.624 19.336 37.624 19.304C37.624 19.144 37.688 18.984 37.816 18.824C37.976 18.664 38.136 18.584 38.296 18.584C38.456 18.584 38.584 18.696 38.68 18.92C39.064 19.688 39.256 20.488 39.256 21.32C39.256 22.344 39 23.368 38.488 24.392C38.008 25.416 37.336 26.328 36.472 27.128C35.64 27.928 34.712 28.52 33.688 28.904C32.728 29.288 31.768 29.48 30.808 29.48C29.08 29.48 27.592 28.904 26.344 27.752C25.128 26.568 24.52 25.048 24.52 23.192C24.52 22.616 24.584 22.072 24.712 21.56C25.224 19.288 26.2 17.304 27.64 15.608C29.08 13.912 30.824 12.456 32.872 11.24C34.92 10.024 37.08 9.016 39.352 8.216C41.656 7.384 43.928 6.712 46.168 6.2C48.408 5.688 50.44 5.272 52.264 4.952C52.392 4.696 52.648 4.296 53.032 3.752C53.416 3.176 53.864 2.632 54.376 2.12C54.888 1.576 55.4 1.224 55.912 1.064C56.296 0.935999 56.712 0.871999 57.16 0.871999C57.608 0.871999 57.976 0.983998 58.264 1.208C58.552 1.432 58.696 1.784 58.696 2.264C58.696 3.192 58.296 3.896 57.496 4.376C56.728 4.824 55.88 5.224 54.952 5.576C54.664 5.576 54.312 5.656 53.896 5.816C53.512 5.944 53.208 6.008 52.984 6.008C51.8 8.152 50.824 10.264 50.056 12.344C49.288 14.424 48.584 16.472 47.944 18.488C47.336 20.472 46.696 22.456 46.024 24.44C45.352 26.392 44.52 28.36 43.528 30.344C42.536 32.296 41.272 34.264 39.736 36.248C37.112 39.64 34.152 42.312 30.856 44.264C27.592 46.216 24.216 47.48 20.728 48.056C19.768 48.216 18.824 48.328 17.896 48.392C16.968 48.488 16.088 48.536 15.256 48.536ZM53.8 4.76C55.048 4.504 55.88 4.216 56.296 3.896C56.744 3.576 56.968 3.288 56.968 3.032C56.968 2.84 56.904 2.696 56.776 2.6C56.648 2.472 56.52 2.408 56.392 2.408C56.232 2.344 55.992 2.456 55.672 2.744C55.352 3 55.016 3.336 54.664 3.752C54.344 4.136 54.056 4.472 53.8 4.76ZM43.1436 41.384C44.2956 39.048 45.3996 36.744 46.4556 34.472C47.5436 32.168 48.6476 29.976 49.7676 27.896C50.4076 26.744 50.9356 25.944 51.3516 25.496C51.7996 25.016 52.3916 24.776 53.1276 24.776C53.3836 24.776 53.6556 24.824 53.9436 24.92C54.2316 24.984 54.5196 25.016 54.8076 25.016C54.9996 25.016 55.1436 25 55.2396 24.968C54.7916 25.224 54.2156 25.864 53.5116 26.888C52.8076 27.88 52.0876 29.032 51.3516 30.344C50.6156 31.656 49.9596 32.888 49.3836 34.04C49.9916 33.304 50.6156 32.568 51.2556 31.832C51.9276 31.096 52.6636 30.392 53.4636 29.72C54.2316 29.048 55.1436 28.36 56.1996 27.656C57.2876 26.92 58.3436 26.312 59.3676 25.832C60.3916 25.352 61.2076 25.112 61.8156 25.112C62.0396 25.112 62.1996 25.128 62.2956 25.16C62.2956 25.16 62.1196 25.48 61.7676 26.12C61.4156 26.728 60.9676 27.544 60.4236 28.568C59.9116 29.56 59.3836 30.632 58.8396 31.784C58.2956 32.904 57.7996 33.992 57.3516 35.048C56.9356 36.072 56.6636 36.936 56.5356 37.64C56.4396 38.056 56.3916 38.44 56.3916 38.792C56.3916 39.304 56.4876 39.64 56.6796 39.8C56.8716 39.96 57.0796 40.04 57.3036 40.04C57.9116 40.04 58.5516 39.72 59.2236 39.08C59.8956 38.408 60.5356 37.592 61.1436 36.632C61.7836 35.672 62.3436 34.744 62.8236 33.848C63.3356 32.92 63.7036 32.216 63.9276 31.736C64.0556 31.48 64.1516 31.336 64.2156 31.304C64.2796 31.24 64.3756 31.208 64.5036 31.208C64.6956 31.208 64.7916 31.336 64.7916 31.592C64.7916 31.752 64.7436 31.928 64.6476 32.12C64.2636 32.856 63.7996 33.736 63.2556 34.76C62.7436 35.784 62.1516 36.792 61.4796 37.784C60.8076 38.744 60.0716 39.56 59.2716 40.232C58.4716 40.872 57.6076 41.192 56.6796 41.192C56.0396 41.192 55.3676 40.968 54.6636 40.52C53.9916 40.072 53.6556 39.24 53.6556 38.024C53.6556 37.672 53.6876 37.304 53.7516 36.92C53.8156 36.504 53.9276 36.056 54.0876 35.576C54.3436 34.936 54.6476 34.248 54.9996 33.512C55.3516 32.776 55.9276 31.768 56.7276 30.488C56.9516 30.136 57.0796 29.864 57.1116 29.672C57.1756 29.48 57.2076 29.32 57.2076 29.192C57.2076 28.808 57.0316 28.616 56.6796 28.616C56.3916 28.616 55.9596 28.776 55.3836 29.096C54.8396 29.416 54.1516 29.976 53.3196 30.776C52.5196 31.544 51.5596 32.632 50.4396 34.04C49.3516 35.448 48.0876 37.528 46.6476 40.28C46.4236 40.696 46.1676 40.92 45.8796 40.952C45.6236 40.984 45.2556 41.016 44.7756 41.048C44.4556 41.08 44.1516 41.096 43.8636 41.096C43.5756 41.128 43.3356 41.224 43.1436 41.384ZM64.9326 41.192C63.3646 41.192 62.2446 40.792 61.5726 39.992C60.9326 39.16 60.6126 38.296 60.6126 37.4C60.6126 36.664 60.7886 35.992 61.1406 35.384C61.5246 34.776 61.9726 34.456 62.4846 34.424C63.1246 33.176 63.8126 31.816 64.5486 30.344C65.3166 28.872 66.0206 27.448 66.6606 26.072C67.1086 25.144 67.6686 24.248 68.3406 23.384C69.0446 22.52 69.8126 22.024 70.6446 21.896H71.1246C71.3806 21.896 71.6046 21.912 71.7966 21.944C72.0206 21.976 72.2446 22.04 72.4686 22.136C72.8206 22.296 72.9966 22.536 72.9966 22.856C72.9966 23.048 72.8846 23.144 72.6606 23.144C72.5646 23.144 72.4366 23.096 72.2766 23C71.8926 22.84 71.5566 22.76 71.2686 22.76C71.0766 22.76 70.9006 22.808 70.7406 22.904C70.1326 23.224 69.7006 23.672 69.4446 24.248C69.2206 24.824 69.1086 25.432 69.1086 26.072C69.1086 26.584 69.1566 27.112 69.2526 27.656C69.3806 28.168 69.5246 28.632 69.6846 29.048C70.0366 29.944 70.4046 30.824 70.7886 31.688C71.2046 32.552 71.4126 33.48 71.4126 34.472C71.4126 35.432 71.0926 36.456 70.4526 37.544C69.8126 38.6 68.9966 39.448 68.0046 40.088L68.3406 40.136C68.5006 40.168 68.6126 40.184 68.6766 40.184C68.7406 40.184 68.7886 40.184 68.8206 40.184C69.5566 40.184 70.2446 39.976 70.8846 39.56C71.5566 39.112 72.1486 38.568 72.6606 37.928C73.1726 37.288 73.7486 36.392 74.3886 35.24C75.0606 34.088 75.7006 32.872 76.3086 31.592C76.4046 31.432 76.5166 31.352 76.6446 31.352C76.8046 31.352 76.9166 31.416 76.9806 31.544C77.0766 31.64 77.0926 31.768 77.0286 31.928C76.6126 32.824 76.1326 33.8 75.5886 34.856C75.0766 35.88 74.4846 36.872 73.8126 37.832C73.1406 38.76 72.3566 39.528 71.4606 40.136C70.5966 40.712 69.6206 41 68.5326 41C68.2766 41 68.0046 40.984 67.7166 40.952C67.4286 40.92 67.1406 40.856 66.8526 40.76C66.5326 40.888 66.1966 40.984 65.8446 41.048C65.5246 41.144 65.2206 41.192 64.9326 41.192ZM66.3726 39.752C66.9166 39.304 67.3966 38.648 67.8126 37.784C68.2606 36.92 68.4846 35.784 68.4846 34.376C68.4846 33.128 68.3566 31.8 68.1006 30.392C67.8446 28.984 67.7166 27.736 67.7166 26.648C67.7166 26.424 67.7166 26.232 67.7166 26.072C67.7486 25.88 67.7806 25.704 67.8126 25.544C67.3966 26.408 66.9166 27.416 66.3726 28.568C65.8286 29.688 65.2846 30.776 64.7406 31.832C64.1966 32.888 63.7326 33.784 63.3486 34.52C63.3486 34.52 63.4286 34.536 63.5886 34.568C63.7806 34.568 63.9566 34.68 64.1166 34.904C64.2766 35.096 64.3406 35.496 64.3086 36.104C64.2766 36.904 64.4526 37.656 64.8366 38.36C65.2526 39.032 65.7646 39.496 66.3726 39.752ZM64.5486 40.424C64.7406 40.424 64.9166 40.408 65.0766 40.376C65.2366 40.312 65.3806 40.264 65.5086 40.232C65.0286 39.88 64.5966 39.416 64.2126 38.84C63.8606 38.232 63.6526 37.464 63.5886 36.536C63.0126 37.144 62.7246 37.8 62.7246 38.504C62.7246 39.016 62.8846 39.464 63.2046 39.848C63.5246 40.232 63.9726 40.424 64.5486 40.424ZM78.5088 41C77.6128 41 76.8128 40.696 76.1088 40.088C75.4048 39.448 75.0527 38.456 75.0527 37.112C75.0527 36.056 75.2448 34.76 75.6288 33.224C76.0448 31.656 76.5408 30.04 77.1168 28.376C77.7248 26.68 78.3168 25.144 78.8928 23.768H76.3488C76.1248 23.768 76.0128 23.608 76.0128 23.288C76.0128 23.128 76.0448 22.984 76.1088 22.856C76.2048 22.728 76.3328 22.664 76.4928 22.664H79.3728C79.9168 21.448 80.4928 20.264 81.1008 19.112C81.7088 17.96 82.3008 16.872 82.8768 15.848C83.6128 14.568 84.3968 13.608 85.2288 12.968C86.0608 12.328 86.7808 12.008 87.3888 12.008C87.8688 12.008 88.2688 12.2 88.5888 12.584C88.9088 12.936 89.0688 13.48 89.0688 14.216C89.0688 14.664 88.9728 15.288 88.7808 16.088C88.5888 16.856 88.2848 17.672 87.8688 18.536C87.6448 18.984 87.3248 19.624 86.9088 20.456C86.5248 21.288 86.1408 22.024 85.7568 22.664H88.0608C88.2848 22.664 88.3968 22.824 88.3968 23.144C88.3968 23.272 88.3648 23.416 88.3008 23.576C88.2368 23.704 88.1408 23.768 88.0128 23.768H85.1808C84.3808 25.144 83.4688 26.488 82.4448 27.8C81.4208 29.112 80.2048 30.424 78.7968 31.736C78.7008 32.024 78.5728 32.44 78.4128 32.984C78.2848 33.528 78.1568 34.088 78.0288 34.664C77.9328 35.208 77.8368 35.672 77.7408 36.056C77.6768 36.44 77.6448 36.632 77.6448 36.632C77.5488 37.048 77.5008 37.432 77.5008 37.784C77.5008 38.456 77.6608 38.952 77.9808 39.272C78.3008 39.56 78.6688 39.704 79.0848 39.704C79.3408 39.704 79.5968 39.672 79.8528 39.608C80.1088 39.512 80.3968 39.352 80.7168 39.128C81.8368 38.328 82.8128 37.24 83.6448 35.864C84.5088 34.488 85.2608 33.16 85.9008 31.88C86.0928 31.496 86.2848 31.304 86.4768 31.304C86.6048 31.304 86.6688 31.4 86.6688 31.592C86.6688 31.688 86.6208 31.864 86.5248 32.12C85.8208 33.592 85.2288 34.776 84.7488 35.672C84.2688 36.568 83.8048 37.32 83.3568 37.928C82.9088 38.504 82.3808 39.08 81.7728 39.656C81.3248 40.104 80.8128 40.44 80.2368 40.664C79.6608 40.888 79.0848 41 78.5088 41ZM82.3008 22.664H84.7488C85.1968 21.832 85.6128 21.016 85.9968 20.216C86.4128 19.416 86.7808 18.616 87.1008 17.816C87.3248 17.304 87.5168 16.728 87.6768 16.088C87.8368 15.448 87.9168 14.952 87.9168 14.6C87.9168 14.12 87.8048 13.88 87.5807 13.88C87.4208 13.88 87.1808 14.024 86.8608 14.312C86.5728 14.568 86.2048 15.016 85.7568 15.656C85.1808 16.456 84.6048 17.496 84.0288 18.776C83.4848 20.024 82.9088 21.32 82.3008 22.664ZM79.1808 30.2C80.1088 29.24 80.9728 28.216 81.7728 27.128C82.6048 26.04 83.3728 24.92 84.0768 23.768H81.8208C81.3088 24.952 80.8288 26.104 80.3808 27.224C79.9328 28.344 79.5328 29.336 79.1808 30.2ZM96.181 41.144C95.829 41.176 95.429 41.096 94.981 40.904C94.533 40.712 94.133 40.36 93.781 39.848C93.461 39.336 93.301 38.616 93.301 37.688C93.301 36.92 93.445 35.992 93.733 34.904C93.349 35.512 92.853 36.264 92.245 37.16C91.637 38.024 90.981 38.792 90.277 39.464C89.669 40.04 89.093 40.456 88.549 40.712C88.005 40.968 87.509 41.096 87.061 41.096C86.229 41.096 85.557 40.728 85.045 39.992C84.533 39.224 84.277 38.232 84.277 37.016C84.277 35.736 84.597 34.28 85.237 32.648C85.877 31.016 86.917 29.32 88.357 27.56C89.285 26.44 90.405 25.544 91.717 24.872C93.061 24.168 94.373 23.816 95.653 23.816C96.389 23.816 97.093 23.944 97.765 24.2C98.437 24.424 99.029 24.808 99.541 25.352C99.765 25.576 99.877 25.832 99.877 26.12C99.877 26.312 99.797 26.472 99.637 26.6C99.477 26.728 99.269 26.76 99.013 26.696C98.661 25.576 97.909 25.016 96.757 25.016C96.213 25.016 95.589 25.192 94.885 25.544C93.797 26.12 92.661 27.064 91.477 28.376C90.325 29.688 89.317 31.048 88.453 32.456C88.325 32.648 88.117 33.016 87.829 33.56C87.573 34.104 87.317 34.712 87.061 35.384C86.805 36.056 86.629 36.712 86.533 37.352C86.501 37.544 86.485 37.688 86.485 37.784C86.485 37.848 86.485 37.96 86.485 38.12C86.485 39.176 86.885 39.704 87.685 39.704C88.645 39.704 89.733 39 90.949 37.592C91.781 36.568 92.533 35.496 93.205 34.376C93.877 33.256 94.565 32.056 95.269 30.776C95.749 29.912 96.197 29.192 96.613 28.616C97.029 28.04 97.621 27.752 98.389 27.752C98.741 27.752 99.093 27.8 99.445 27.896C99.797 27.992 100.165 28.008 100.549 27.944C100.293 28.2 99.941 28.68 99.493 29.384C99.077 30.088 98.629 30.888 98.149 31.784C97.669 32.68 97.237 33.592 96.853 34.52C96.469 35.448 96.197 36.248 96.037 36.92C96.005 37.112 95.957 37.384 95.893 37.736C95.861 38.088 95.845 38.344 95.845 38.504C95.845 39.4 96.101 39.848 96.613 39.848C97.125 39.848 97.669 39.544 98.245 38.936C98.853 38.328 99.445 37.576 100.021 36.68C100.597 35.784 101.125 34.888 101.605 33.992C102.085 33.064 102.469 32.312 102.757 31.736C102.885 31.416 103.077 31.256 103.333 31.256C103.493 31.256 103.573 31.368 103.573 31.592C103.573 31.688 103.525 31.864 103.429 32.12C103.045 32.92 102.581 33.832 102.037 34.856C101.493 35.848 100.901 36.824 100.261 37.784C99.621 38.712 98.949 39.496 98.245 40.136C97.573 40.744 96.885 41.08 96.181 41.144ZM106.672 41.192C104.848 41.192 103.568 40.76 102.832 39.896C102.096 39 101.728 37.912 101.728 36.632C101.728 35.224 102.048 33.72 102.688 32.12C103.36 30.52 104.144 29.128 105.04 27.944C105.968 26.696 106.992 25.736 108.112 25.064C109.232 24.36 110.368 24.008 111.52 24.008C112.736 24.008 113.632 24.312 114.208 24.92C114.784 25.528 115.008 26.344 114.88 27.368C114.816 28.008 114.512 28.648 113.968 29.288C113.424 29.896 112.88 30.2 112.336 30.2C112.08 30.2 111.856 30.104 111.664 29.912C111.92 29.592 112.192 29.208 112.48 28.76C112.768 28.312 112.976 27.88 113.104 27.464C113.232 27.08 113.296 26.696 113.296 26.312C113.296 25.512 112.912 25.112 112.144 25.112C111.28 25.112 110.368 25.56 109.408 26.456C108.48 27.32 107.664 28.264 106.96 29.288C106.672 29.672 106.32 30.28 105.904 31.112C105.52 31.912 105.168 32.808 104.848 33.8C104.528 34.76 104.368 35.704 104.368 36.632C104.368 37.592 104.576 38.456 104.992 39.224C105.44 39.96 106.176 40.328 107.2 40.328C108.608 40.328 109.808 39.896 110.8 39.032C111.824 38.136 112.72 37.032 113.488 35.72C114.288 34.408 115.008 33.128 115.648 31.88C115.84 31.496 116.032 31.304 116.224 31.304C116.384 31.304 116.464 31.432 116.464 31.688C116.464 31.816 116.416 31.976 116.32 32.168C115.552 33.832 114.768 35.352 113.968 36.728C113.168 38.104 112.192 39.192 111.04 39.992C109.92 40.792 108.464 41.192 106.672 41.192ZM117.604 41.144C116.26 41.144 115.348 40.792 114.868 40.088C114.388 39.352 114.148 38.488 114.148 37.496C114.148 36.472 114.292 35.416 114.58 34.328C114.868 33.24 115.124 32.328 115.348 31.592C115.86 29.8 116.5 27.896 117.268 25.88C118.068 23.832 118.932 21.832 119.86 19.88C120.82 17.896 121.764 16.12 122.692 14.552C123.428 13.304 124.212 12.376 125.044 11.768C125.908 11.128 126.66 10.808 127.3 10.808C127.812 10.808 128.212 11 128.5 11.384C128.82 11.736 128.98 12.28 128.98 13.016C128.98 13.528 128.884 14.136 128.692 14.84C128.532 15.544 128.244 16.344 127.828 17.24C126.708 19.736 125.364 22.232 123.796 24.728C122.26 27.224 120.308 29.56 117.94 31.736C117.812 32.152 117.636 32.648 117.412 33.224C117.22 33.768 117.044 34.328 116.884 34.904C116.692 35.768 116.596 36.504 116.596 37.112C116.596 38.104 116.788 38.856 117.172 39.368C117.588 39.848 118.084 40.088 118.66 40.088C119.172 40.088 119.716 39.912 120.292 39.56C120.868 39.176 121.412 38.632 121.924 37.928C122.692 36.808 123.38 35.672 123.988 34.52C124.628 33.336 125.108 32.424 125.428 31.784C125.62 31.432 125.828 31.256 126.052 31.256C126.212 31.256 126.292 31.352 126.292 31.544C126.292 31.704 126.244 31.88 126.148 32.072C125.86 32.712 125.476 33.544 124.996 34.568C124.548 35.56 123.972 36.568 123.268 37.592C122.596 38.584 121.78 39.432 120.82 40.136C119.892 40.808 118.82 41.144 117.604 41.144ZM118.324 30.2C119.476 29.016 120.596 27.656 121.684 26.12C122.772 24.552 123.78 22.936 124.708 21.272C125.668 19.576 126.468 17.976 127.108 16.472C127.332 15.992 127.508 15.464 127.636 14.888C127.796 14.312 127.876 13.832 127.876 13.448C127.876 13 127.764 12.776 127.54 12.776C127.412 12.776 127.22 12.904 126.964 13.16C126.708 13.384 126.372 13.784 125.956 14.36C125.348 15.16 124.676 16.248 123.94 17.624C123.236 19 122.516 20.472 121.78 22.04C121.044 23.608 120.372 25.128 119.764 26.6C119.156 28.04 118.676 29.24 118.324 30.2ZM127.726 41C126.51 41 125.614 40.6 125.038 39.8C124.462 38.968 124.174 37.96 124.174 36.776C124.174 35.336 124.51 33.832 125.182 32.264C125.822 30.792 126.638 29.448 127.63 28.232C128.622 27.016 129.694 26.04 130.846 25.304C131.998 24.536 133.118 24.152 134.206 24.152C135.422 24.152 136.318 24.552 136.894 25.352C137.47 26.152 137.758 27.16 137.758 28.376C137.758 29.848 137.422 31.352 136.75 32.888C136.366 33.752 135.822 34.712 135.118 35.768C134.414 36.792 133.614 37.736 132.718 38.6C132.91 38.952 133.182 39.256 133.534 39.512C133.886 39.736 134.366 39.848 134.974 39.848C135.742 39.848 136.462 39.528 137.134 38.888C137.838 38.248 138.478 37.48 139.054 36.584C139.63 35.656 140.142 34.728 140.59 33.8C141.038 32.872 141.406 32.12 141.694 31.544C141.79 31.352 141.95 31.256 142.174 31.256C142.302 31.256 142.398 31.32 142.462 31.448C142.526 31.544 142.51 31.704 142.414 31.928C142.222 32.408 141.902 33.128 141.454 34.088C141.006 35.016 140.462 35.992 139.822 37.016C139.182 38.008 138.446 38.856 137.614 39.56C136.782 40.264 135.854 40.616 134.83 40.616C134.126 40.616 133.518 40.504 133.006 40.28C132.494 40.024 132.078 39.72 131.758 39.368C131.086 39.88 130.414 40.28 129.742 40.568C129.07 40.856 128.398 41 127.726 41ZM128.446 39.944C129.31 39.944 130.238 39.528 131.23 38.696C130.974 38.312 130.782 37.912 130.654 37.496C130.526 37.08 130.462 36.696 130.462 36.344C130.462 35.768 130.59 35.272 130.846 34.856C131.134 34.44 131.566 34.232 132.142 34.232C132.558 34.232 132.894 34.392 133.15 34.712C133.438 35 133.582 35.336 133.582 35.72C133.582 35.816 133.566 35.912 133.534 36.008C133.534 36.072 133.518 36.152 133.486 36.248C134.03 35.512 134.542 34.648 135.022 33.656C136.078 31.384 136.606 29.512 136.606 28.04C136.606 27.304 136.462 26.728 136.174 26.312C135.886 25.896 135.454 25.688 134.878 25.688C134.206 25.688 133.47 25.976 132.67 26.552C131.902 27.128 131.15 27.896 130.414 28.856C129.71 29.816 129.086 30.888 128.542 32.072C128.03 33.16 127.614 34.216 127.294 35.24C127.006 36.232 126.862 37.096 126.862 37.832C126.862 38.472 126.99 38.984 127.246 39.368C127.502 39.752 127.902 39.944 128.446 39.944ZM136.94 41.384C138.092 39.048 139.197 36.744 140.253 34.472C141.341 32.168 142.445 29.976 143.565 27.896C144.205 26.744 144.733 25.944 145.148 25.496C145.597 25.016 146.189 24.776 146.925 24.776C147.181 24.776 147.453 24.824 147.741 24.92C148.029 24.984 148.317 25.016 148.605 25.016C148.797 25.016 148.941 25 149.037 24.968C148.589 25.224 148.013 25.864 147.309 26.888C146.605 27.88 145.885 29.032 145.148 30.344C144.413 31.656 143.757 32.888 143.181 34.04C143.789 33.304 144.413 32.568 145.053 31.832C145.725 31.096 146.461 30.392 147.261 29.72C148.029 29.048 148.941 28.36 149.997 27.656C151.085 26.92 152.141 26.312 153.165 25.832C154.189 25.352 155.005 25.112 155.613 25.112C155.837 25.112 155.997 25.128 156.093 25.16C156.093 25.16 155.917 25.48 155.565 26.12C155.213 26.728 154.765 27.544 154.221 28.568C153.709 29.56 153.181 30.632 152.637 31.784C152.093 32.904 151.597 33.992 151.148 35.048C150.733 36.072 150.461 36.936 150.333 37.64C150.237 38.056 150.189 38.44 150.189 38.792C150.189 39.304 150.285 39.64 150.477 39.8C150.669 39.96 150.877 40.04 151.101 40.04C151.709 40.04 152.349 39.72 153.021 39.08C153.693 38.408 154.333 37.592 154.941 36.632C155.581 35.672 156.141 34.744 156.621 33.848C157.133 32.92 157.501 32.216 157.725 31.736C157.853 31.48 157.949 31.336 158.013 31.304C158.077 31.24 158.173 31.208 158.301 31.208C158.493 31.208 158.589 31.336 158.589 31.592C158.589 31.752 158.541 31.928 158.445 32.12C158.061 32.856 157.597 33.736 157.053 34.76C156.541 35.784 155.949 36.792 155.277 37.784C154.605 38.744 153.869 39.56 153.069 40.232C152.269 40.872 151.405 41.192 150.477 41.192C149.837 41.192 149.165 40.968 148.461 40.52C147.789 40.072 147.453 39.24 147.453 38.024C147.453 37.672 147.485 37.304 147.549 36.92C147.613 36.504 147.725 36.056 147.885 35.576C148.141 34.936 148.445 34.248 148.797 33.512C149.149 32.776 149.725 31.768 150.525 30.488C150.749 30.136 150.877 29.864 150.909 29.672C150.973 29.48 151.005 29.32 151.005 29.192C151.005 28.808 150.829 28.616 150.477 28.616C150.189 28.616 149.757 28.776 149.181 29.096C148.637 29.416 147.949 29.976 147.117 30.776C146.317 31.544 145.357 32.632 144.237 34.04C143.149 35.448 141.885 37.528 140.445 40.28C140.221 40.696 139.965 40.92 139.677 40.952C139.421 40.984 139.053 41.016 138.572 41.048C138.252 41.08 137.948 41.096 137.66 41.096C137.373 41.128 137.132 41.224 136.94 41.384ZM161.034 41.192C159.85 41.192 158.778 40.808 157.818 40.04C156.89 39.272 156.426 38.104 156.426 36.536C156.426 35.096 156.778 33.56 157.482 31.928C158.186 30.264 159.082 28.808 160.17 27.56C161.098 26.472 162.138 25.576 163.29 24.872C164.442 24.168 165.53 23.816 166.554 23.816C167.258 23.816 167.865 24.008 168.378 24.392C168.922 24.808 169.194 25.4 169.194 26.168C169.194 26.968 168.89 27.848 168.282 28.808C167.674 29.768 166.81 30.664 165.69 31.496C165.21 31.848 164.602 32.184 163.866 32.504C163.13 32.824 162.394 33.096 161.658 33.32C160.922 33.512 160.314 33.608 159.834 33.608C159.674 33.992 159.514 34.504 159.354 35.144C159.226 35.784 159.162 36.44 159.162 37.112C159.162 37.912 159.322 38.632 159.642 39.272C159.962 39.912 160.554 40.232 161.418 40.232C162.474 40.232 163.434 39.928 164.298 39.32C165.162 38.712 165.93 37.96 166.602 37.064C167.274 36.136 167.834 35.208 168.282 34.28C168.762 33.352 169.146 32.568 169.434 31.928C169.626 31.48 169.882 31.256 170.202 31.256C170.362 31.256 170.442 31.336 170.442 31.496C170.442 31.624 170.394 31.784 170.298 31.976C169.85 32.936 169.37 33.96 168.858 35.048C168.346 36.104 167.738 37.112 167.034 38.072C166.33 39 165.482 39.752 164.49 40.328C163.53 40.904 162.378 41.192 161.034 41.192ZM160.17 32.744C160.618 32.744 161.37 32.584 162.426 32.264C163.482 31.912 164.442 31.368 165.306 30.632C166.138 29.896 166.778 29.096 167.226 28.232C167.674 27.336 167.898 26.584 167.898 25.976C167.898 25.272 167.642 24.92 167.13 24.92C166.746 24.92 166.218 25.176 165.546 25.688C164.874 26.2 164.042 27.064 163.05 28.28C162.442 29.048 161.866 29.88 161.322 30.776C160.778 31.672 160.394 32.328 160.17 32.744Z" fill="black"/>
</svg>
