<svg width="26" height="27" viewBox="0 0 26 27" fill="none" xmlns="http://www.w3.org/2000/svg">
<path d="M25.1116 21.4783L20.7196 17.08L17.3413 15.6823C18.4662 14.0804 19.0688 12.1693 19.0666 10.211C19.0666 4.94674 14.79 0.664001 9.53331 0.664001C4.27661 0.664001 0 4.94674 0 10.211C0 15.4752 4.27661 19.7579 9.53331 19.7579C11.5059 19.7602 13.43 19.1463 15.0377 18.0017L16.4297 21.3757L20.8216 25.7742C21.1033 26.0563 21.4377 26.2801 21.8057 26.4327C22.1737 26.5854 22.5682 26.664 22.9665 26.664C23.3649 26.664 23.7593 26.5855 24.1274 26.4328C24.4954 26.2802 24.8298 26.0564 25.1115 25.7743C25.3932 25.4923 25.6166 25.1574 25.7691 24.7888C25.9215 24.4203 26 24.0253 26 23.6264C26 23.2274 25.9216 22.8324 25.7691 22.4639C25.6167 22.0953 25.3933 21.7604 25.1116 21.4783ZM1.73333 10.211C1.73333 5.90398 5.23249 2.39981 9.53331 2.39981C13.8341 2.39981 17.3333 5.90398 17.3333 10.211C17.3333 14.518 13.8341 18.0221 9.53331 18.0221C5.23249 18.0221 1.73333 14.518 1.73333 10.211ZM23.8859 24.5468C23.6419 24.7906 23.3113 24.9275 22.9666 24.9275C22.6219 24.9275 22.2913 24.7906 22.0474 24.5468L17.8997 20.3932L16.6055 17.256L19.7383 18.5521L23.886 22.7057C24.1294 22.9501 24.2661 23.2811 24.2661 23.6263C24.266 23.9714 24.1293 24.3025 23.8859 24.5468Z" fill="black"/>
</svg>
